<mxfile host="65bd71144e">
    <diagram id="x6jDrZe0ydc0VZc0kLpT" name="Palindrome check">
        <mxGraphModel dx="1372" dy="1032" grid="1" gridSize="10" guides="1" tooltips="1" connect="1" arrows="1" fold="1" page="1" pageScale="1" pageWidth="850" pageHeight="1100" math="0" shadow="0">
            <root>
                <mxCell id="0"/>
                <mxCell id="1" parent="0"/>
                <mxCell id="37" value="&lt;b&gt;ALGORITMA MEMERIKSA KATA PALINDROME&lt;/b&gt;" style="text;html=1;align=center;verticalAlign=middle;resizable=0;points=[];autosize=1;strokeColor=none;fillColor=none;" vertex="1" parent="1">
                    <mxGeometry x="20" y="30" width="290" height="30" as="geometry"/>
                </mxCell>
                <mxCell id="38" value="&lt;font style=&quot;font-size: 24px;&quot;&gt;&lt;b&gt;1. FLOWCHART&lt;/b&gt;&lt;/font&gt;" style="text;html=1;align=center;verticalAlign=middle;resizable=0;points=[];autosize=1;strokeColor=none;fillColor=none;" vertex="1" parent="1">
                    <mxGeometry x="20" y="70" width="200" height="40" as="geometry"/>
                </mxCell>
                <mxCell id="39" style="edgeStyle=orthogonalEdgeStyle;rounded=0;orthogonalLoop=1;jettySize=auto;html=1;entryX=0.5;entryY=0;entryDx=0;entryDy=0;" edge="1" parent="1" source="40" target="42">
                    <mxGeometry relative="1" as="geometry"/>
                </mxCell>
                <mxCell id="40" value="mulai" style="ellipse;whiteSpace=wrap;html=1;" vertex="1" parent="1">
                    <mxGeometry x="230" y="110" width="120" height="80" as="geometry"/>
                </mxCell>
                <mxCell id="41" style="edgeStyle=orthogonalEdgeStyle;rounded=0;orthogonalLoop=1;jettySize=auto;html=1;entryX=0.5;entryY=0;entryDx=0;entryDy=0;" edge="1" parent="1" source="42" target="44">
                    <mxGeometry relative="1" as="geometry"/>
                </mxCell>
                <mxCell id="42" value="INPUT&lt;br&gt;&quot;kakak&quot;" style="shape=parallelogram;perimeter=parallelogramPerimeter;whiteSpace=wrap;html=1;fixedSize=1;" vertex="1" parent="1">
                    <mxGeometry x="217.5" y="220" width="145" height="60" as="geometry"/>
                </mxCell>
                <mxCell id="43" style="edgeStyle=orthogonalEdgeStyle;rounded=0;orthogonalLoop=1;jettySize=auto;html=1;entryX=0.5;entryY=0;entryDx=0;entryDy=0;fontSize=9;" edge="1" parent="1" source="44" target="49">
                    <mxGeometry relative="1" as="geometry"/>
                </mxCell>
                <mxCell id="44" value="value = &quot;kakak&quot;" style="shape=hexagon;perimeter=hexagonPerimeter2;whiteSpace=wrap;html=1;fixedSize=1;" vertex="1" parent="1">
                    <mxGeometry x="230" y="310" width="120" height="80" as="geometry"/>
                </mxCell>
                <mxCell id="45" style="edgeStyle=orthogonalEdgeStyle;rounded=0;orthogonalLoop=1;jettySize=auto;html=1;entryX=0.5;entryY=0;entryDx=0;entryDy=0;fontSize=9;" edge="1" parent="1" source="49" target="54">
                    <mxGeometry relative="1" as="geometry"/>
                </mxCell>
                <mxCell id="46" value="TRUE" style="edgeLabel;html=1;align=center;verticalAlign=middle;resizable=0;points=[];fontSize=9;" connectable="0" vertex="1" parent="45">
                    <mxGeometry x="-0.3219" relative="1" as="geometry">
                        <mxPoint as="offset"/>
                    </mxGeometry>
                </mxCell>
                <mxCell id="47" style="edgeStyle=orthogonalEdgeStyle;rounded=0;orthogonalLoop=1;jettySize=auto;html=1;fontSize=9;" edge="1" parent="1" source="49" target="68">
                    <mxGeometry relative="1" as="geometry">
                        <mxPoint x="420" y="390" as="targetPoint"/>
                        <Array as="points">
                            <mxPoint x="430" y="460"/>
                        </Array>
                    </mxGeometry>
                </mxCell>
                <mxCell id="48" value="FALSE" style="edgeLabel;html=1;align=center;verticalAlign=middle;resizable=0;points=[];fontSize=9;" connectable="0" vertex="1" parent="47">
                    <mxGeometry x="-0.278" relative="1" as="geometry">
                        <mxPoint y="-21" as="offset"/>
                    </mxGeometry>
                </mxCell>
                <mxCell id="49" value="&lt;font style=&quot;font-size: 9px;&quot;&gt;is value.length &amp;lt;= 2 ?&lt;br&gt;&lt;/font&gt;" style="rhombus;whiteSpace=wrap;html=1;" vertex="1" parent="1">
                    <mxGeometry x="215" y="420" width="150" height="80" as="geometry"/>
                </mxCell>
                <mxCell id="50" style="edgeStyle=orthogonalEdgeStyle;rounded=0;orthogonalLoop=1;jettySize=auto;html=1;entryX=0.5;entryY=0;entryDx=0;entryDy=0;" edge="1" parent="1" source="54" target="56">
                    <mxGeometry relative="1" as="geometry"/>
                </mxCell>
                <mxCell id="51" value="TRUE" style="edgeLabel;html=1;align=center;verticalAlign=middle;resizable=0;points=[];" connectable="0" vertex="1" parent="50">
                    <mxGeometry x="-0.2967" y="1" relative="1" as="geometry">
                        <mxPoint as="offset"/>
                    </mxGeometry>
                </mxCell>
                <mxCell id="52" style="edgeStyle=orthogonalEdgeStyle;rounded=0;orthogonalLoop=1;jettySize=auto;html=1;" edge="1" parent="1" source="54" target="65">
                    <mxGeometry relative="1" as="geometry"/>
                </mxCell>
                <mxCell id="53" value="FALSE" style="edgeLabel;html=1;align=center;verticalAlign=middle;resizable=0;points=[];" connectable="0" vertex="1" parent="52">
                    <mxGeometry x="-0.8459" y="2" relative="1" as="geometry">
                        <mxPoint y="-2" as="offset"/>
                    </mxGeometry>
                </mxCell>
                <mxCell id="54" value="var i = 0;&lt;br&gt;i &amp;lt; value.length / 2;" style="rhombus;whiteSpace=wrap;html=1;" vertex="1" parent="1">
                    <mxGeometry x="212.5" y="540" width="155" height="80" as="geometry"/>
                </mxCell>
                <mxCell id="55" style="edgeStyle=orthogonalEdgeStyle;rounded=0;orthogonalLoop=1;jettySize=auto;html=1;entryX=0.5;entryY=0;entryDx=0;entryDy=0;" edge="1" parent="1" source="56" target="60">
                    <mxGeometry relative="1" as="geometry"/>
                </mxCell>
                <mxCell id="56" value="idxAwal = value[i];&lt;br&gt;idxAkhir = value[value.length - 1 - i];" style="shape=hexagon;perimeter=hexagonPerimeter2;whiteSpace=wrap;html=1;fixedSize=1;" vertex="1" parent="1">
                    <mxGeometry x="215" y="660" width="150" height="80" as="geometry"/>
                </mxCell>
                <mxCell id="57" style="edgeStyle=orthogonalEdgeStyle;rounded=0;orthogonalLoop=1;jettySize=auto;html=1;" edge="1" parent="1" source="72">
                    <mxGeometry relative="1" as="geometry">
                        <mxPoint x="290" y="960" as="targetPoint"/>
                        <Array as="points">
                            <mxPoint x="290" y="940"/>
                            <mxPoint x="290" y="940"/>
                        </Array>
                    </mxGeometry>
                </mxCell>
                <mxCell id="58" style="edgeStyle=orthogonalEdgeStyle;rounded=0;orthogonalLoop=1;jettySize=auto;html=1;entryX=0.5;entryY=1;entryDx=0;entryDy=0;" edge="1" parent="1" source="60" target="62">
                    <mxGeometry relative="1" as="geometry">
                        <Array as="points">
                            <mxPoint x="475" y="810"/>
                        </Array>
                    </mxGeometry>
                </mxCell>
                <mxCell id="59" value="FALSE" style="edgeLabel;html=1;align=center;verticalAlign=middle;resizable=0;points=[];" connectable="0" vertex="1" parent="58">
                    <mxGeometry x="-0.3195" y="-4" relative="1" as="geometry">
                        <mxPoint x="-12" y="-4" as="offset"/>
                    </mxGeometry>
                </mxCell>
                <mxCell id="60" value="if&lt;br&gt;idxAwal !== idxAkhir" style="rhombus;whiteSpace=wrap;html=1;" vertex="1" parent="1">
                    <mxGeometry x="212.5" y="770" width="155" height="80" as="geometry"/>
                </mxCell>
                <mxCell id="61" style="edgeStyle=orthogonalEdgeStyle;rounded=0;orthogonalLoop=1;jettySize=auto;html=1;entryX=1;entryY=0.5;entryDx=0;entryDy=0;" edge="1" parent="1" source="62" target="54">
                    <mxGeometry relative="1" as="geometry">
                        <Array as="points">
                            <mxPoint x="475" y="580"/>
                        </Array>
                    </mxGeometry>
                </mxCell>
                <mxCell id="62" value="i = i + 1" style="rounded=0;whiteSpace=wrap;html=1;" vertex="1" parent="1">
                    <mxGeometry x="415" y="680" width="120" height="60" as="geometry"/>
                </mxCell>
                <mxCell id="63" style="edgeStyle=orthogonalEdgeStyle;rounded=0;orthogonalLoop=1;jettySize=auto;html=1;entryX=0.5;entryY=0;entryDx=0;entryDy=0;" edge="1" parent="1" source="72" target="66">
                    <mxGeometry relative="1" as="geometry"/>
                </mxCell>
                <mxCell id="64" style="edgeStyle=orthogonalEdgeStyle;rounded=0;orthogonalLoop=1;jettySize=auto;html=1;entryX=0;entryY=0.5;entryDx=0;entryDy=0;" edge="1" parent="1" source="65" target="66">
                    <mxGeometry relative="1" as="geometry">
                        <Array as="points">
                            <mxPoint x="100" y="1030"/>
                        </Array>
                    </mxGeometry>
                </mxCell>
                <mxCell id="65" value="OUTPUT&lt;br&gt;&quot;Palindrome&quot;" style="shape=parallelogram;perimeter=parallelogramPerimeter;whiteSpace=wrap;html=1;fixedSize=1;" vertex="1" parent="1">
                    <mxGeometry x="20" y="900" width="160" height="60" as="geometry"/>
                </mxCell>
                <mxCell id="66" value="SELESAI" style="ellipse;whiteSpace=wrap;html=1;" vertex="1" parent="1">
                    <mxGeometry x="230" y="990" width="120" height="80" as="geometry"/>
                </mxCell>
                <mxCell id="67" style="edgeStyle=orthogonalEdgeStyle;rounded=0;orthogonalLoop=1;jettySize=auto;html=1;entryX=1;entryY=0.5;entryDx=0;entryDy=0;" edge="1" parent="1" source="68" target="42">
                    <mxGeometry relative="1" as="geometry">
                        <Array as="points">
                            <mxPoint x="430" y="250"/>
                        </Array>
                    </mxGeometry>
                </mxCell>
                <mxCell id="68" value="Input Min 3 Karakter" style="shape=parallelogram;perimeter=parallelogramPerimeter;whiteSpace=wrap;html=1;fixedSize=1;" vertex="1" parent="1">
                    <mxGeometry x="362.5" y="320" width="140" height="60" as="geometry"/>
                </mxCell>
                <mxCell id="69" value="&lt;h1&gt;&lt;font style=&quot;font-size: 24px;&quot;&gt;2. DESKRIPTIF&lt;/font&gt;&lt;/h1&gt;&lt;p&gt;&lt;font size=&quot;3&quot;&gt;1. mulai&lt;br style=&quot;border-color: var(--border-color);&quot;&gt;2. input string kakak&lt;br style=&quot;border-color: var(--border-color);&quot;&gt;3. asign string kakak kedalam variable value&lt;br style=&quot;border-color: var(--border-color);&quot;&gt;4. cek apakah panjang value lebih dari dua ?&lt;br style=&quot;border-color: var(--border-color);&quot;&gt;5.jika ya maka lanjut ke proses berikutnya&lt;br style=&quot;border-color: var(--border-color);&quot;&gt;dan jika tidak input string kembali&lt;br style=&quot;border-color: var(--border-color);&quot;&gt;6. asign nilai 0 kedalam variable i dan cek apakah i kurang dari panjang variable value&lt;br style=&quot;border-color: var(--border-color);&quot;&gt;7. jika apakah i kurang dari panjang variable value maka bandingkan index value ke [i] dengan&lt;br style=&quot;border-color: var(--border-color);&quot;&gt;index dari panjang value - 1 - i&lt;br style=&quot;border-color: var(--border-color);&quot;&gt;8. jika tidak sama maka tampilkan &quot;Bukan Palindrome&quot; dan selesai.&lt;br style=&quot;border-color: var(--border-color);&quot;&gt;9. jika sama maka tambahkan +1 pada variable i dan terus lakukan pengecekan hingga nilai variable i lebih besar dari panjang value.&lt;br style=&quot;border-color: var(--border-color);&quot;&gt;10. tampilkan &quot;Palindrome&quot; dan Selesai.&lt;/font&gt;&lt;br&gt;&lt;/p&gt;" style="text;html=1;strokeColor=none;fillColor=none;spacing=5;spacingTop=-20;whiteSpace=wrap;overflow=hidden;rounded=0;" vertex="1" parent="1">
                    <mxGeometry x="540" y="70" width="260" height="540" as="geometry"/>
                </mxCell>
                <mxCell id="70" value="" style="edgeStyle=orthogonalEdgeStyle;rounded=0;orthogonalLoop=1;jettySize=auto;html=1;" edge="1" parent="1" source="60" target="72">
                    <mxGeometry relative="1" as="geometry">
                        <mxPoint x="290" y="960" as="targetPoint"/>
                        <Array as="points"/>
                        <mxPoint x="290" y="850" as="sourcePoint"/>
                    </mxGeometry>
                </mxCell>
                <mxCell id="71" value="TRUE" style="edgeLabel;html=1;align=center;verticalAlign=middle;resizable=0;points=[];" connectable="0" vertex="1" parent="70">
                    <mxGeometry x="-0.2259" y="-1" relative="1" as="geometry">
                        <mxPoint as="offset"/>
                    </mxGeometry>
                </mxCell>
                <mxCell id="72" value="OUTPUT&lt;br&gt;&quot;Bukan Palindrome&quot;" style="shape=parallelogram;perimeter=parallelogramPerimeter;whiteSpace=wrap;html=1;fixedSize=1;" vertex="1" parent="1">
                    <mxGeometry x="210" y="900" width="160" height="60" as="geometry"/>
                </mxCell>
            </root>
        </mxGraphModel>
    </diagram>
    <diagram id="OHyJSMukBgXbwo0Br1IL" name="Vowel Change">
        <mxGraphModel dx="1646" dy="1238" grid="1" gridSize="10" guides="1" tooltips="1" connect="1" arrows="1" fold="1" page="1" pageScale="1" pageWidth="850" pageHeight="1100" math="0" shadow="0">
            <root>
                <mxCell id="0"/>
                <mxCell id="1" parent="0"/>
                <mxCell id="aLIbBBXrjyzdiDBW5D20-1" style="edgeStyle=orthogonalEdgeStyle;rounded=0;orthogonalLoop=1;jettySize=auto;html=1;entryX=0.5;entryY=0;entryDx=0;entryDy=0;fontSize=14;" edge="1" parent="1" source="aLIbBBXrjyzdiDBW5D20-2" target="aLIbBBXrjyzdiDBW5D20-4">
                    <mxGeometry relative="1" as="geometry"/>
                </mxCell>
                <mxCell id="aLIbBBXrjyzdiDBW5D20-2" value="Mulai" style="ellipse;whiteSpace=wrap;html=1;fontSize=14;" vertex="1" parent="1">
                    <mxGeometry x="185" y="100" width="120" height="80" as="geometry"/>
                </mxCell>
                <mxCell id="aLIbBBXrjyzdiDBW5D20-3" style="edgeStyle=orthogonalEdgeStyle;rounded=0;orthogonalLoop=1;jettySize=auto;html=1;fontSize=14;" edge="1" parent="1" source="aLIbBBXrjyzdiDBW5D20-4">
                    <mxGeometry relative="1" as="geometry">
                        <mxPoint x="245" y="330" as="targetPoint"/>
                    </mxGeometry>
                </mxCell>
                <mxCell id="aLIbBBXrjyzdiDBW5D20-4" value="Input&lt;br&gt;&quot;jakarta&quot;" style="shape=parallelogram;perimeter=parallelogramPerimeter;whiteSpace=wrap;html=1;fixedSize=1;fontSize=14;" vertex="1" parent="1">
                    <mxGeometry x="175" y="220" width="140" height="60" as="geometry"/>
                </mxCell>
                <mxCell id="aLIbBBXrjyzdiDBW5D20-5" style="edgeStyle=orthogonalEdgeStyle;rounded=0;orthogonalLoop=1;jettySize=auto;html=1;fontSize=14;" edge="1" parent="1" source="aLIbBBXrjyzdiDBW5D20-6" target="aLIbBBXrjyzdiDBW5D20-11">
                    <mxGeometry relative="1" as="geometry"/>
                </mxCell>
                <mxCell id="aLIbBBXrjyzdiDBW5D20-6" value="kata = &quot;jakarta&quot;" style="shape=hexagon;perimeter=hexagonPerimeter2;whiteSpace=wrap;html=1;fixedSize=1;fontSize=14;" vertex="1" parent="1">
                    <mxGeometry x="185" y="330" width="120" height="80" as="geometry"/>
                </mxCell>
                <mxCell id="aLIbBBXrjyzdiDBW5D20-7" style="edgeStyle=orthogonalEdgeStyle;rounded=0;orthogonalLoop=1;jettySize=auto;html=1;fontSize=14;" edge="1" parent="1" source="aLIbBBXrjyzdiDBW5D20-11" target="aLIbBBXrjyzdiDBW5D20-34">
                    <mxGeometry relative="1" as="geometry">
                        <mxPoint x="315" y="260" as="targetPoint"/>
                        <Array as="points">
                            <mxPoint x="385" y="490"/>
                        </Array>
                    </mxGeometry>
                </mxCell>
                <mxCell id="aLIbBBXrjyzdiDBW5D20-8" value="FALSE" style="edgeLabel;html=1;align=center;verticalAlign=middle;resizable=0;points=[];fontSize=14;" connectable="0" vertex="1" parent="aLIbBBXrjyzdiDBW5D20-7">
                    <mxGeometry x="-0.3619" y="2" relative="1" as="geometry">
                        <mxPoint x="5" y="-38" as="offset"/>
                    </mxGeometry>
                </mxCell>
                <mxCell id="aLIbBBXrjyzdiDBW5D20-9" style="edgeStyle=orthogonalEdgeStyle;rounded=0;orthogonalLoop=1;jettySize=auto;html=1;fontSize=14;" edge="1" parent="1" source="aLIbBBXrjyzdiDBW5D20-11" target="aLIbBBXrjyzdiDBW5D20-13">
                    <mxGeometry relative="1" as="geometry"/>
                </mxCell>
                <mxCell id="aLIbBBXrjyzdiDBW5D20-10" value="TRUE" style="edgeLabel;html=1;align=center;verticalAlign=middle;resizable=0;points=[];fontSize=14;" connectable="0" vertex="1" parent="aLIbBBXrjyzdiDBW5D20-9">
                    <mxGeometry x="-0.328" relative="1" as="geometry">
                        <mxPoint as="offset"/>
                    </mxGeometry>
                </mxCell>
                <mxCell id="aLIbBBXrjyzdiDBW5D20-11" value="is kata !== number ?" style="rhombus;whiteSpace=wrap;html=1;fontSize=14;" vertex="1" parent="1">
                    <mxGeometry x="162.5" y="450" width="165" height="80" as="geometry"/>
                </mxCell>
                <mxCell id="aLIbBBXrjyzdiDBW5D20-12" style="edgeStyle=orthogonalEdgeStyle;rounded=0;orthogonalLoop=1;jettySize=auto;html=1;fontSize=14;" edge="1" parent="1" source="aLIbBBXrjyzdiDBW5D20-13" target="aLIbBBXrjyzdiDBW5D20-17">
                    <mxGeometry relative="1" as="geometry"/>
                </mxCell>
                <mxCell id="aLIbBBXrjyzdiDBW5D20-13" value="vokal = ['a','A'];&lt;br&gt;hasil = ' ';" style="shape=hexagon;perimeter=hexagonPerimeter2;whiteSpace=wrap;html=1;fixedSize=1;fontSize=14;" vertex="1" parent="1">
                    <mxGeometry x="185" y="570" width="120" height="80" as="geometry"/>
                </mxCell>
                <mxCell id="aLIbBBXrjyzdiDBW5D20-14" style="edgeStyle=orthogonalEdgeStyle;rounded=0;orthogonalLoop=1;jettySize=auto;html=1;fontSize=14;" edge="1" parent="1" source="aLIbBBXrjyzdiDBW5D20-37">
                    <mxGeometry relative="1" as="geometry">
                        <mxPoint x="245" y="840" as="targetPoint"/>
                    </mxGeometry>
                </mxCell>
                <mxCell id="aLIbBBXrjyzdiDBW5D20-15" style="edgeStyle=orthogonalEdgeStyle;rounded=0;orthogonalLoop=1;jettySize=auto;html=1;fontSize=14;" edge="1" parent="1" source="aLIbBBXrjyzdiDBW5D20-17" target="aLIbBBXrjyzdiDBW5D20-25">
                    <mxGeometry relative="1" as="geometry"/>
                </mxCell>
                <mxCell id="aLIbBBXrjyzdiDBW5D20-16" value="FALSE" style="edgeLabel;html=1;align=center;verticalAlign=middle;resizable=0;points=[];fontSize=14;" connectable="0" vertex="1" parent="aLIbBBXrjyzdiDBW5D20-15">
                    <mxGeometry x="-0.553" y="1" relative="1" as="geometry">
                        <mxPoint as="offset"/>
                    </mxGeometry>
                </mxCell>
                <mxCell id="aLIbBBXrjyzdiDBW5D20-17" value="var i = 0;&lt;br&gt;i &amp;lt; kata.length" style="rhombus;whiteSpace=wrap;html=1;fontSize=14;" vertex="1" parent="1">
                    <mxGeometry x="175" y="680" width="140" height="80" as="geometry"/>
                </mxCell>
                <mxCell id="aLIbBBXrjyzdiDBW5D20-18" value="" style="edgeStyle=orthogonalEdgeStyle;rounded=0;orthogonalLoop=1;jettySize=auto;html=1;fontSize=14;" edge="1" parent="1" source="aLIbBBXrjyzdiDBW5D20-37" target="aLIbBBXrjyzdiDBW5D20-23">
                    <mxGeometry relative="1" as="geometry"/>
                </mxCell>
                <mxCell id="aLIbBBXrjyzdiDBW5D20-19" value="TRUE" style="edgeLabel;html=1;align=center;verticalAlign=middle;resizable=0;points=[];fontSize=14;" connectable="0" vertex="1" parent="aLIbBBXrjyzdiDBW5D20-18">
                    <mxGeometry x="-0.2644" y="2" relative="1" as="geometry">
                        <mxPoint as="offset"/>
                    </mxGeometry>
                </mxCell>
                <mxCell id="aLIbBBXrjyzdiDBW5D20-20" style="edgeStyle=orthogonalEdgeStyle;rounded=0;orthogonalLoop=1;jettySize=auto;html=1;fontSize=14;" edge="1" parent="1" source="aLIbBBXrjyzdiDBW5D20-37" target="aLIbBBXrjyzdiDBW5D20-29">
                    <mxGeometry relative="1" as="geometry"/>
                </mxCell>
                <mxCell id="aLIbBBXrjyzdiDBW5D20-21" value="FALSE" style="edgeLabel;html=1;align=center;verticalAlign=middle;resizable=0;points=[];fontSize=14;" connectable="0" vertex="1" parent="aLIbBBXrjyzdiDBW5D20-20">
                    <mxGeometry x="-0.2578" y="-1" relative="1" as="geometry">
                        <mxPoint x="10" y="-1" as="offset"/>
                    </mxGeometry>
                </mxCell>
                <mxCell id="aLIbBBXrjyzdiDBW5D20-22" style="edgeStyle=orthogonalEdgeStyle;rounded=0;orthogonalLoop=1;jettySize=auto;html=1;entryX=0.5;entryY=1;entryDx=0;entryDy=0;fontSize=14;" edge="1" parent="1" source="aLIbBBXrjyzdiDBW5D20-23" target="aLIbBBXrjyzdiDBW5D20-27">
                    <mxGeometry relative="1" as="geometry"/>
                </mxCell>
                <mxCell id="aLIbBBXrjyzdiDBW5D20-23" value="increment hasil with string &quot;o&quot;" style="whiteSpace=wrap;html=1;fontSize=14;" vertex="1" parent="1">
                    <mxGeometry x="180" y="930" width="130" height="60" as="geometry"/>
                </mxCell>
                <mxCell id="aLIbBBXrjyzdiDBW5D20-24" style="edgeStyle=orthogonalEdgeStyle;rounded=0;orthogonalLoop=1;jettySize=auto;html=1;entryX=0;entryY=0.5;entryDx=0;entryDy=0;fontSize=14;" edge="1" parent="1" source="aLIbBBXrjyzdiDBW5D20-25" target="aLIbBBXrjyzdiDBW5D20-30">
                    <mxGeometry relative="1" as="geometry">
                        <Array as="points">
                            <mxPoint x="80" y="1050"/>
                        </Array>
                    </mxGeometry>
                </mxCell>
                <mxCell id="aLIbBBXrjyzdiDBW5D20-25" value="output hasil" style="shape=parallelogram;perimeter=parallelogramPerimeter;whiteSpace=wrap;html=1;fixedSize=1;fontSize=14;" vertex="1" parent="1">
                    <mxGeometry x="15" y="830" width="130" height="60" as="geometry"/>
                </mxCell>
                <mxCell id="aLIbBBXrjyzdiDBW5D20-26" style="edgeStyle=orthogonalEdgeStyle;rounded=0;orthogonalLoop=1;jettySize=auto;html=1;fontSize=14;" edge="1" parent="1" source="aLIbBBXrjyzdiDBW5D20-27" target="aLIbBBXrjyzdiDBW5D20-17">
                    <mxGeometry relative="1" as="geometry">
                        <Array as="points">
                            <mxPoint x="625" y="720"/>
                        </Array>
                    </mxGeometry>
                </mxCell>
                <mxCell id="aLIbBBXrjyzdiDBW5D20-27" value="i = i+1" style="rounded=0;whiteSpace=wrap;html=1;fontSize=14;" vertex="1" parent="1">
                    <mxGeometry x="565" y="820" width="120" height="60" as="geometry"/>
                </mxCell>
                <mxCell id="aLIbBBXrjyzdiDBW5D20-28" style="edgeStyle=orthogonalEdgeStyle;rounded=0;orthogonalLoop=1;jettySize=auto;html=1;entryX=0;entryY=0.5;entryDx=0;entryDy=0;fontSize=14;" edge="1" parent="1" source="aLIbBBXrjyzdiDBW5D20-29" target="aLIbBBXrjyzdiDBW5D20-27">
                    <mxGeometry relative="1" as="geometry"/>
                </mxCell>
                <mxCell id="aLIbBBXrjyzdiDBW5D20-29" value="increment hasil with kata[i]" style="whiteSpace=wrap;html=1;fontSize=14;" vertex="1" parent="1">
                    <mxGeometry x="395" y="820" width="130" height="60" as="geometry"/>
                </mxCell>
                <mxCell id="aLIbBBXrjyzdiDBW5D20-30" value="Selesai" style="ellipse;whiteSpace=wrap;html=1;fontSize=14;" vertex="1" parent="1">
                    <mxGeometry x="185" y="1010" width="120" height="80" as="geometry"/>
                </mxCell>
                <mxCell id="aLIbBBXrjyzdiDBW5D20-31" value="&lt;b&gt;CHANGE VOWEL TO O&lt;/b&gt;" style="text;html=1;align=center;verticalAlign=middle;resizable=0;points=[];autosize=1;strokeColor=none;fillColor=none;fontSize=14;" vertex="1" parent="1">
                    <mxGeometry width="180" height="30" as="geometry"/>
                </mxCell>
                <mxCell id="aLIbBBXrjyzdiDBW5D20-32" value="&lt;font style=&quot;font-size: 24px;&quot;&gt;1. FLOWCHART&lt;/font&gt;" style="text;html=1;align=center;verticalAlign=middle;resizable=0;points=[];autosize=1;strokeColor=none;fillColor=none;fontSize=14;fontStyle=1" vertex="1" parent="1">
                    <mxGeometry x="30" y="60" width="200" height="40" as="geometry"/>
                </mxCell>
                <mxCell id="aLIbBBXrjyzdiDBW5D20-33" style="edgeStyle=orthogonalEdgeStyle;rounded=0;orthogonalLoop=1;jettySize=auto;html=1;entryX=1;entryY=0.5;entryDx=0;entryDy=0;" edge="1" parent="1" source="aLIbBBXrjyzdiDBW5D20-34" target="aLIbBBXrjyzdiDBW5D20-4">
                    <mxGeometry relative="1" as="geometry">
                        <Array as="points">
                            <mxPoint x="388" y="250"/>
                        </Array>
                    </mxGeometry>
                </mxCell>
                <mxCell id="aLIbBBXrjyzdiDBW5D20-34" value="Input Harus &lt;br&gt;berupa string" style="shape=parallelogram;perimeter=parallelogramPerimeter;whiteSpace=wrap;html=1;fixedSize=1;" vertex="1" parent="1">
                    <mxGeometry x="327.5" y="340" width="117.5" height="60" as="geometry"/>
                </mxCell>
                <mxCell id="aLIbBBXrjyzdiDBW5D20-35" value="" style="edgeStyle=orthogonalEdgeStyle;rounded=0;orthogonalLoop=1;jettySize=auto;html=1;fontSize=14;" edge="1" parent="1" source="aLIbBBXrjyzdiDBW5D20-17" target="aLIbBBXrjyzdiDBW5D20-37">
                    <mxGeometry relative="1" as="geometry">
                        <mxPoint x="245" y="840" as="targetPoint"/>
                        <mxPoint x="245" y="760" as="sourcePoint"/>
                    </mxGeometry>
                </mxCell>
                <mxCell id="aLIbBBXrjyzdiDBW5D20-36" value="TRUE" style="edgeLabel;html=1;align=center;verticalAlign=middle;resizable=0;points=[];fontSize=14;" connectable="0" vertex="1" parent="aLIbBBXrjyzdiDBW5D20-35">
                    <mxGeometry x="-0.2" relative="1" as="geometry">
                        <mxPoint as="offset"/>
                    </mxGeometry>
                </mxCell>
                <mxCell id="aLIbBBXrjyzdiDBW5D20-37" value="is kata[i] include&lt;br&gt;vokal ?" style="rhombus;whiteSpace=wrap;html=1;fontSize=14;" vertex="1" parent="1">
                    <mxGeometry x="175" y="810" width="140" height="80" as="geometry"/>
                </mxCell>
                <mxCell id="aLIbBBXrjyzdiDBW5D20-38" value="&lt;h1&gt;&lt;font style=&quot;font-size: 24px;&quot;&gt;2. DESKRIPTIF&lt;/font&gt;&lt;/h1&gt;&lt;p&gt;&lt;font size=&quot;3&quot;&gt;1. mulai&lt;br style=&quot;border-color: var(--border-color);&quot;&gt;&lt;span style=&quot;border-color: var(--border-color);&quot;&gt;2. input string &quot;jakarta&quot;&lt;/span&gt;&lt;br style=&quot;border-color: var(--border-color);&quot;&gt;&lt;span style=&quot;border-color: var(--border-color);&quot;&gt;3. assign string &quot;jakarta&quot; ke variable kata&lt;/span&gt;&lt;br style=&quot;border-color: var(--border-color);&quot;&gt;&lt;span style=&quot;border-color: var(--border-color);&quot;&gt;4. cek apakah kata benar benar string, jika tidak input kembali string&lt;/span&gt;&lt;br style=&quot;border-color: var(--border-color);&quot;&gt;&lt;span style=&quot;border-color: var(--border-color);&quot;&gt;5. asign karakter a dan A kedalam variable vokal dengan type data array&lt;/span&gt;&lt;br style=&quot;border-color: var(--border-color);&quot;&gt;&lt;span style=&quot;border-color: var(--border-color);&quot;&gt;6. assign string kosong (temporary) kedalam variable hasil&lt;/span&gt;&lt;br style=&quot;border-color: var(--border-color);&quot;&gt;&lt;span style=&quot;border-color: var(--border-color);&quot;&gt;7. buat variable i = 0 dan bandingkan apakah i lebih kecil dari panjang kata,&lt;/span&gt;&lt;br style=&quot;border-color: var(--border-color);&quot;&gt;&lt;span style=&quot;border-color: var(--border-color);&quot;&gt;8. jika ya maka cek apakah index kata[i] mengandung vokal ?&lt;/span&gt;&lt;br style=&quot;border-color: var(--border-color);&quot;&gt;&lt;span style=&quot;border-color: var(--border-color);&quot;&gt;9.jika ya tambahkan huruf&amp;nbsp; o pada variable hasil&lt;/span&gt;&lt;br style=&quot;border-color: var(--border-color);&quot;&gt;&lt;span style=&quot;border-color: var(--border-color);&quot;&gt;10. namun jika tidak tambahkan kata[i] pada variable hasil&lt;/span&gt;&lt;br style=&quot;border-color: var(--border-color);&quot;&gt;&lt;span style=&quot;border-color: var(--border-color);&quot;&gt;11. increment variable i (i=i+1)&lt;/span&gt;&lt;br style=&quot;border-color: var(--border-color);&quot;&gt;&lt;span style=&quot;border-color: var(--border-color);&quot;&gt;12. ulangi pengecekan apakah i lebih kecil dari panjang kata&lt;/span&gt;&lt;br style=&quot;border-color: var(--border-color);&quot;&gt;&lt;span style=&quot;border-color: var(--border-color);&quot;&gt;13. jika tidak maka tampilkan output variable hasil&lt;/span&gt;&lt;br style=&quot;border-color: var(--border-color);&quot;&gt;&lt;span style=&quot;border-color: var(--border-color);&quot;&gt;14. selesai&lt;/span&gt;&lt;/font&gt;&lt;br&gt;&lt;/p&gt;" style="text;html=1;strokeColor=none;fillColor=none;spacing=5;spacingTop=-20;whiteSpace=wrap;overflow=hidden;rounded=0;" vertex="1" parent="1">
                    <mxGeometry x="500" y="55" width="320" height="525" as="geometry"/>
                </mxCell>
            </root>
        </mxGraphModel>
    </diagram>
</mxfile>